<svg id="Ellipse_1_Kopie_Bild" data-name="Ellipse 1 Kopie Bild" xmlns="http://www.w3.org/2000/svg" viewBox="0 0 372 194"><defs><style>.cls-1{fill:#fff;}</style></defs><path class="cls-1" d="M75.23,271c0-36.13,0-72.26-.08-108.39,0-3,.6-3.58,3.58-3.58q182.34.15,364.69,0c3,0,3.59.6,3.58,3.58-.13,36.13-.08,72.26-.08,108.39a1.57,1.57,0,0,1-1,0c-7.46-4.2-8.55-4-13.19,3.36s-9.13,14.71-13.92,21.92c-3.36,5.06-5.35,5.17-8.82.22-5.45-7.77-10.07-16.07-14.95-24.21-3-5-4.59-5.51-9.63-2.9a4.88,4.88,0,0,1-4.21.61c-8.67-3-17.43-2.1-26,.07-7.75,1.95-12.44,8-12.63,16.64-.39,19-.23,37.94-.05,56.92,0,4.84,1.9,6.62,6.77,6.76,8.49.24,17,.18,25.47,0,3.24-.06,6.22-1,6.3-4.91s-3-4.83-6.18-5c-5.32-.37-10.65,0-16-.19-5.12-.17-6.07-1.11-6.25-6.23-.13-3.66,0-7.33,0-11s1.87-5.43,5.55-5.49c4.83-.07,9.66,0,14.49-.07,3.45-.08,6.42-.92,6.62-5.11q.24-4.8-6.64-5c-4.82-.14-9.65,0-14.48-.07-3.67,0-5.56-1.69-5.54-5.45,0-4-.31-8,.18-12,1-7.77,4.76-11.08,12.56-11.33,5.59-.17,11.33.87,16.56-2.32,2-1.23,3.52.28,4.5,1.93,6.71,11.31,13.75,22.41,21.33,33.16,1.51,2.14,1.58,4.69,1.59,7.21,0,7.65.25,15.32-.1,23-.19,4.19,1.58,7.65,2.7,11.39H258.08c3.23-6,2.44-12.51,2.45-18.91q0-28.7,0-57.38c0-6.2-1.61-8.77-5.12-8.59-3.24.15-4.75,2.69-4.77,8.55-.06,21.95.06,43.9-.11,65.85,0,3.84,1.95,6.94,2.55,10.48-57.63,0-115.25-.06-172.88.12-4.26,0-5.84-.94-5-5.11,15.68,7.14,46-1.13,57.11-15.36,10.09-12.87,9.88-34.85-1.47-47.51-8.33-9.29-19.05-13.55-31-15.55-2.12-.35-4.27-.67-6.41-.9C87.22,267.88,81,267.84,75.23,271Z" transform="translate(-75 -159)"/><path class="cls-1" d="M412,352.88c-3.09-2-4.14-4.75-4.06-8.41.19-9,0-18,.07-27a8.89,8.89,0,0,0-1.42-5.62A409.35,409.35,0,0,1,383.62,276c-2.3,3.33-5.49,4-9.08,3.92-3.82-.1-7.66-.09-11.48.08-4.53.19-7.37,2.53-8.37,7.08-1.23,5.6-.44,11.27-.7,16.91-.11,2.47,1.67,2,3.07,2,5.65,0,11.31-.05,17,0,4.87.07,7.18,2.15,7.26,6.28.09,4.36-2.33,6.6-7.39,6.67-5.33.07-10.66.15-16,0-2.81-.1-4.25.31-4,3.68.39,5.28-1.72,12.24.92,15.43s10,.74,15.21,1c2.33.13,4.68-.11,7,.15,3.66.41,5.77,2.64,5.73,6.33s-2,6.21-5.73,6.28c-10.15.2-20.31.24-30.45,0-3.66-.09-5.56-2.75-5.56-6.44,0-19.8-.24-39.6.16-59.4.21-10.63,6.83-17,19.28-18.34,7.21-.78,14.86-2.7,21.83,1.65,1,.64,1.29-.23,1.92-.72,5.24-4,8.55-3.27,11.88,2.68a286.46,286.46,0,0,0,18.5,29.24c5.5-8.66,10.79-17,16.07-25.33,1-1.54,1.87-3.14,2.87-4.67,4-6.18,8.68-6,13.39.57v3c-2.56,9.33-8.27,17.1-14,24.4-8.72,11.14-12.32,23-10.7,36.89.38,3.27,0,6.62.07,9.94.1,3.94-1.23,6.76-5.36,7.69Z" transform="translate(-75 -159)"/><path class="cls-1" d="M75.23,271c1.59-2.21,3.34-4,6.41-4,12.78-.2,25.28,1.08,36.88,6.94,14.65,7.4,22.7,19.18,22.61,35.83C141,326.12,133,337.76,118.54,345c-11.77,5.91-24.45,7.17-37.39,6.84-2.87-.07-4.37-2-5.92-4Z" transform="translate(-75 -159)"/><path class="cls-1" d="M416.94,352.88c3.26-2.06,4.34-5,4.24-8.82-.23-8.81-.06-17.63-.09-26.45a8.94,8.94,0,0,1,1.14-5.23q12.39-19.19,24.69-38.42c0,25.31-.05,50.62.06,75.92,0,2.5-.56,3.12-3.06,3.07C434.93,352.78,425.93,352.88,416.94,352.88Z" transform="translate(-75 -159)"/><path class="cls-1" d="M253.08,352.88c-3.08-2-4.08-4.74-4.06-8.4.12-23.43,0-46.86.07-70.28,0-5.67,2-8.12,6.38-8.22,4.59-.1,6.75,2.49,6.76,8.31,0,23.26-.06,46.53.08,69.79,0,3.85-1,6.75-4.23,8.8Z" transform="translate(-75 -159)"/><path class="cls-1" d="M271.07,309.52c0-11.47,0-22.94,0-34.41,0-6.19,1.9-8.09,7.93-8.17,12.26-.15,24.23,1.31,35.33,6.92C329,281.24,337,293,337,309.6s-8.18,28.31-22.88,35.58c-11.62,5.74-24.12,7.09-36.86,6.65-4.57-.16-6.19-3.13-6.17-7.41C271.1,332.78,271.07,321.15,271.07,309.52Z" transform="translate(-75 -159)"/><path class="cls-1" d="M146.17,315.39q0-12.48,0-25c0-14.91,6.51-22.06,21.41-23.25,4.8-.38,9.65-.2,14.48-.15,4.18,0,6.61,2.26,6.67,6.45s-2.54,6-6.33,6.26c-4.31.24-8.65,0-13,.15-6.12.18-9.06,2.43-9.79,8.43-.61,5.1-.28,10.3-.49,15.45-.1,2.37,1.37,2.18,2.91,2.17,5.66,0,11.32-.05,17,0,5.11.06,7.53,2.28,7.43,6.62-.09,4.16-2.4,6.25-7.25,6.33-5.66.08-11.33.12-17,0-2.35-.06-3.22.58-3.12,3,.18,4.65.23,9.33,0,14-.15,2.88,1.14,3.21,3.52,3.16,5.82-.13,11.65-.1,17.48,0,5.18.07,7.84,2.29,7.88,6.34s-2.64,6.45-7.69,6.49q-13.24.11-26.48,0c-5.65,0-7.6-2.13-7.63-8C146.14,334.37,146.17,324.88,146.17,315.39Z" transform="translate(-75 -159)"/><path class="cls-1" d="M189.64,310.78c-.43-24.17,17.64-42.52,42.5-43.73a37.87,37.87,0,0,1,8,.15c3.55.58,6.28,2.45,6,6.63s-2.68,6.26-6.85,6.28a48.82,48.82,0,0,0-17.59,3c-13,5.05-20,16.72-18.35,30.34,1.63,13.23,10.91,22.31,25.1,24.38a86.57,86.57,0,0,0,10.43.82c4,.1,6.91,1.34,7.26,5.76s-2.56,6.13-6.27,7c-22.09,5.36-47-11.79-49.67-34.27C189.89,314.84,189.78,312.51,189.64,310.78Z" transform="translate(-75 -159)"/><path class="cls-1" d="M225,212c-1.09,2.93-3.09,2.62-5.11,1.24q-6.17-4.22-12.15-8.68c-2.79-2.07-2.76-4.45,0-6.5q6-4.5,12.16-8.67c2.71-1.83,5.24-.58,5.48,2.83.15,2.22.15,3.55,3.05,3.85,14.92,1.56,24.94,9.92,31,23.31a8.14,8.14,0,0,0,4.53,4.73,18.62,18.62,0,0,1,10.95,20.28c-1.43,8.12-8.19,14.07-17,14.95-7.75.78-16-4.2-18.7-11.26-3.07-8.1-.71-17.36,6.6-22.05,3.7-2.39,3.15-3.87,1.15-6.82-5.22-7.67-12.08-12.14-21.55-12.11C224,208.63,224.55,210.32,225,212Z" transform="translate(-75 -159)"/><path class="cls-1" d="M290.83,188.37c2.76,1.78,5.67,3.59,8.51,5.51,10.46,7,10.45,7.06.32,14.54-2.13,1.57-4.21,3.22-6.44,4.64-3.22,2.05-5.73,1.09-5.79-2.72-.06-4.25-2.31-3.53-4.75-3a25.39,25.39,0,0,0-13.93,8.08c-1.48,1.73-3.15,3.23-5.52,2.17s-3.22-3.26-3.12-5.76a9.44,9.44,0,0,1,3.81-7.23c6-4.74,12.6-8,20.27-8.56,2.27-.18,3.34-.61,3.11-3.1S288,188.76,290.83,188.37Z" transform="translate(-75 -159)"/><path class="cls-1" d="M251,191c0-1.66-.1-3.33,0-5,.2-2.66-.59-3.75-3.58-3.79-3.9-.06-4.88-2.21-2.73-5.59,2.66-4.19,5.5-8.29,8.57-12.2,1.67-2.14,3.74-3.16,5.9.06,2.63,3.95,5.8,7.53,8.49,11.44,2.79,4.07,1.94,5.92-2.94,6.29-2.29.17-2.74,1.05-2.7,3,.1,4,.09,8,0,12-.08,3.39-1.05,6.45-5.05,6.7-4.36.27-5.63-2.82-5.9-6.46-.15-2.15,0-4.32,0-6.48Z" transform="translate(-75 -159)"/><path class="cls-1" d="M225,212c-1.18-1.74-1.58-3.42.41-4.9C225.25,208.73,225.12,210.37,225,212Z" transform="translate(-75 -159)"/><path class="cls-1" d="M128,309.27c-.29,10.46-4.82,18.42-14,23.62-6.94,3.93-14.54,5.35-22.38,6-2.43.19-3.5-.25-3.48-3.09.14-17.6.08-35.19,0-52.79,0-1.82,0-3.19,2.53-3,10.09.72,19.75,2.67,27.85,9.24C124.91,294.35,127.7,301.25,128,309.27Z" transform="translate(-75 -159)"/><path class="cls-1" d="M284.05,309.35c0-8.63.12-17.26-.06-25.89-.06-2.85.75-3.74,3.6-3.47,7.82.75,15.44,2.15,22.35,6.11,8.94,5.13,13.79,12.9,13.82,23.19,0,10.46-4.76,18.42-13.93,23.61-6.94,3.92-14.55,5.29-22.39,6-3.07.28-3.48-1-3.44-3.63C284.14,326.62,284.05,318,284.05,309.35Z" transform="translate(-75 -159)"/><path class="cls-1" d="M256.76,233.17c5.67,2,8.29,5.39,7.07,9.5-1,3.43-3.45,5.9-7.13,5.78-3-.09-6.19-.71-7.18-4.56-1-3.7-.48-6.86,2.85-9.14a28.58,28.58,0,0,1,3-1.57C255.83,232.36,256.29,232.37,256.76,233.17Z" transform="translate(-75 -159)"/><path class="cls-1" d="M256.76,233.17h-1.38c-.94-1.93.79-1,1.33-1.12s1.31-.37,1.27.59C258,232.84,257.18,233,256.76,233.17Z" transform="translate(-75 -159)"/></svg>